<svg width="277" height="252" viewBox="0 0 277 252" fill="none" xmlns="http://www.w3.org/2000/svg">
<path d="M50.5234 95.8819C74.5608 95.8819 94.0469 76.0942 94.0469 51.6848C94.0469 27.2754 74.5608 7.48767 50.5234 7.48767C26.4861 7.48767 7 27.2754 7 51.6848C7 76.0942 26.4861 95.8819 50.5234 95.8819Z" fill="#49687B" stroke="#011418" stroke-width="13.1771"/>
<path d="M226.635 95.3943C202.598 95.3943 183.112 75.6065 183.112 51.1971C183.112 26.7877 202.598 7 226.635 7C250.672 7 270.158 26.7877 270.158 51.1971C270.158 75.6065 250.672 95.3943 226.635 95.3943Z" fill="#49687B" stroke="#011418" stroke-width="13.1771"/>
<path d="M138.887 243.426C202.989 243.426 254.954 192.234 254.954 129.085C254.954 65.9362 202.989 14.7438 138.887 14.7438C74.7849 14.7438 22.8199 65.9362 22.8199 129.085C22.8199 192.234 74.7849 243.426 138.887 243.426Z" fill="white"/>
<path d="M31.5563 155.958C110.774 253.332 180.458 236.831 253.179 152.296L256.84 150.344L231.456 196.719L185.081 235.283L121.743 243.215L63.6525 212.584L35.5836 172.311L31.5563 155.958Z" fill="#C6E4ED"/>
<path d="M138.001 244.555C202.103 244.555 254.068 193.363 254.068 130.214C254.068 67.0651 202.103 15.8728 138.001 15.8728C73.8984 15.8728 21.9334 67.0651 21.9334 130.214C21.9334 193.363 73.8984 244.555 138.001 244.555Z" stroke="#011418" stroke-width="13.8627"/>
<path d="M219.251 136.692C231.75 124.193 230.61 102.788 216.704 88.8829C202.799 74.9774 181.394 73.8371 168.895 86.3359C156.396 98.8348 157.536 120.24 171.442 134.145C185.347 148.051 206.752 149.191 219.251 136.692Z" fill="#011418" stroke="#011418" stroke-width="4.06231"/>
<path d="M59.5775 138.31C47.0787 125.811 48.219 104.406 62.1245 90.5005C76.03 76.595 97.4349 75.4547 109.934 87.9535C122.433 100.452 121.292 121.857 107.387 135.763C93.4813 149.668 72.0764 150.809 59.5775 138.31Z" fill="#011418" stroke="#011418" stroke-width="4.06231"/>
<path d="M82.0746 111.199C78.1885 107.344 78.543 100.742 82.8665 96.4524C87.19 92.1633 93.8452 91.8116 97.7314 95.6668C101.617 99.5221 101.263 106.124 96.9395 110.413C92.616 114.702 85.9608 115.054 82.0746 111.199Z" fill="white"/>
<path d="M195.141 112.447C199.027 108.592 198.673 101.99 194.349 97.7005C190.026 93.4114 183.371 93.0597 179.484 96.9149C175.598 100.77 175.953 107.372 180.276 111.661C184.6 115.951 191.255 116.302 195.141 112.447Z" fill="white"/>
<path d="M152.811 134.36C152.772 138.251 151.24 141.966 148.551 144.69C145.863 147.413 142.238 148.922 138.474 148.884C134.709 148.847 131.113 147.266 128.476 144.489C125.839 141.712 124.377 137.967 124.411 134.076" fill="#011418"/>
<path d="M152.811 134.36C152.772 138.251 151.24 141.966 148.551 144.69C145.863 147.413 142.238 148.922 138.474 148.884C134.709 148.847 131.113 147.266 128.476 144.489C125.839 141.712 124.377 137.967 124.411 134.076" stroke="#011418" stroke-width="9.10753"/>
<path d="M150.641 167.967C147.145 169.753 142.82 170.778 138.503 170.843C134.186 170.907 130.184 170.007 127.271 168.316L140.262 160.361L150.641 167.967Z" fill="#011418"/>
<path d="M139.313 160.895V151.014V161.904" fill="#011418"/>
<path d="M139.313 160.895V151.014V161.904" stroke="#011418" stroke-width="3.05745"/>
</svg>
